# xmcd CD database file
#
# Track frame offsets:
#	150
#	15500
#	47398
#	63845
#	84062
#	109305
#	132022
#	149095
#	172270
#	188885
#	205320
#	223920
#	238995
#	267645
#	296510
#
# Disc length: 4250 seconds
#
# Revision: 0
# Processed by: cddbd v1.5PL3 Copyright (c) Steve Scherf et al.
# Submitted via: CDex 1.50
#
DISCID=e810980f
DTITLE=Various Artist - Salsa Spirit
DYEAR=2004
DGENRE=Salsa
TTITLE0=Bilongo
TTITLE1=Maria
TTITLE2=El Yebero Monderno
TTITLE3=Son De A Verdad
TTITLE4=Etnia
TTITLE5=No Lo Voy A Olividar
TTITLE6=Esta En Candela Mi Son
TTITLE7=Un Adios
TTITLE8=Subeme El Voltaje
TTITLE9=El Baile De La Botella
TTITLE10=Tima Timbero
TTITLE11=Suavecito
TTITLE12=Aprovechalo
TTITLE13=Tumboa Latino Antiyano
TTITLE14=Siembra
EXTD=YEAR: 2004
EXTT0=
EXTT1=
EXTT2=
EXTT3=
EXTT4=
EXTT5=
EXTT6=
EXTT7=
EXTT8=
EXTT9=
EXTT10=
EXTT11=
EXTT12=
EXTT13=
EXTT14=
PLAYORDER=
